<?xml version="1.0" encoding="UTF-8"?>
<svg id="Tracing" xmlns="http://www.w3.org/2000/svg" viewBox="0 0 973.44 406.69">
  <defs>
    <style>
      .cls-1 {
        fill: #5c9779;
      }
    </style>
  </defs>
  <path class="cls-1" d="M329.55,115.24c-5.86-9.51-16.1-12.32-24.62-4.66-21.17,19.96-20.52,78.32-11.58,104.04,3.05,8.34,9.63,16.83,19.11,17.3,13.78.29,21.67-13.67,24.69-25.77l.05-.19c5.15-22.15,3.33-45.99,0-68.51-1.36-7.7-3.61-16.08-7.65-22.2Z"/>
  <path class="cls-1" d="M973.39,391.25c-.38-4.62-.55-9.08-1.26-14.14-10.86-84.56-30.97-236.03-41.09-313.64-1.96-14.13-4.68-38.08-7.2-46.2-1.69-5.86-3.8-8.85-7.32-10.39-4.89-1.91-11.39-1.71-17.51-1.78-107.74-.03-639.77-.05-847.24.04-6.66.29-13.81-.27-17.45,5.9l-.03.05c-2.99,3.69-4.55,20.79-5.6,32.43C20.44,139.67,9.98,265.52,2.6,352.09c-1.05,13.32-3.51,37.72-2.25,44.77.74,5.43,2.79,7.68,6.89,8.67,143.5,2.29,825.07.44,955.29.62,8.61-.64,11.34-3.05,10.86-14.9ZM184.12,120.38c-9.5,3.58-10.94,12.98-10.88,22.34.91,65.37,7.6,130.84,7.02,196.16-.64,5.08-1.83,9.3-4.19,12.27-4.13,5.91-15.8,6.34-23.49,6.33-8.62.09-17.95,0-27.18.03-11.62-.24-28.27.85-35.71-4.06-1.89-1.46-2.81-3.45-3.19-6.14,1.44-35.42,12.51-166.27,15.44-210.55.43-7.22,2.43-15.17-6.29-17.2-4.08-1.33-11.41-1.9-17.38-2.66-5.72-.66-14.17-1.76-16.77-5.97-2.57-3.92-1.76-8.73-1.02-13.38,1.79-8.88,6.21-25.41,12.49-30.82l.09-.07c5.71-4.2,13.86-3.02,20.88-3.33,26.07.12,69.61-.21,94.05.11,4.58.21,8.81.4,12.32,2.81,3.19,2.06,5.7,7.72,7.14,11.98,1.72,4.99,3.52,11.05,4.53,16.77,5.49,25.62-11.84,19.12-27.88,25.39ZM397.3,290.26c-13.66,40.71-51.51,71.53-97.92,65.59-15.4-2.01-30.11-8.99-41.59-18.99-36.16-31.46-38.78-84.11-36.97-128.45,1.47-29.83,5.42-60.93,16.85-89.05,10.9-27.26,34.83-50.59,64.99-56.45,19.19-3.31,40.2,1.64,55.79,12.75,34.52,24.73,37.33,69.17,41.59,106.87l.02.19c3.91,35.3,9.96,73.19-2.75,107.55ZM605.93,348.47c-9.35,5.29-35.68,8.27-44.61,4.11-6.14-2.95-6.81-3.66-10.22-10.01-17.09-31.81-31.11-72.68-40.14-91.42-1.38-2.87-8.01-10.29-9.1-1.16-.72,5.99-.26,7.49-.4,13.44-.43,17.79-.62,34.45-1.78,51.62-.44,6.68-.9,13.77-1.89,20.39-1.06,8.19-3.77,15.86-11.47,18.68-8.62,3.51-18.15,2.98-27.32,3.33-7.15.14-13.32.13-19.42-.38-5.77-.49-9.56-1.37-11.61-2.93l-.06-.04c-3.67-2.94-2.42-8.5-2.09-12.91,8.8-71.21,19.52-220.37,25.4-263.89,1.44-6.38,11.14-9.94,18-11.62,12.21-2.54,26.82-3.85,39.49-3.76,13.86.1,27.9-.6,37.91,10.88,17.37,19.9,20.1,46.13,18.21,61.13-.44,3.52-4.83,14.46-8.84,20.86-7.95,12.69-13.01,23.44-10.35,38.55,1.02,5.76,2.32,12.89,5.45,18.01,6.43,10.23,12.97,21.01,19.07,31.47,7.55,12.91,15.54,26.01,21.9,39.54,6.7,14.27,13.6,33.37,17.67,47.63.69,2.42,5.07,13.47-3.8,18.49ZM759.49,351.07c-8.3,7.71-31.51,5.29-43.62,4.65-11.65-.93-16.67-6.33-18.69-17.53-1.72-8.12-2.89-19.44-4.29-29.57-1.28-8.01-3.67-24.24-6.56-22.49-2.59,5.56-2.05,13.37-2.48,19.73-.21,10.21.37,22.21-.39,30.97-.4,7.14-2.96,14.49-10.24,16.89-8.52,2.99-21.09,2.34-29.14-.33l-.1-.04c-3.09-1.24-4.4-3.06-4.81-5.71,1.44-50.95,12.83-222.61,15.08-269.88.21-7.09,1.8-11.42,9.39-12.81,10.36-2.54,24.64,1.67,29.69,12.56,3.79,7.49,4.67,19,6.09,28.3,5.22,34.21.02,24.56,7.19,58.31,6.59,25.16,12.95,9.92,14.34,2.86.18-.91.26-1.83.28-2.76.33-24.78.94-38.43,1.5-63.63.17-7.37.43-14.66,2.32-20.45,3.85-14.03,18.67-20.21,21.01-4.72,3.63,43.85,13.82,186.76,17.25,231.23.49,6.75.99,12.65,1.41,19.58.36,8.32,1.4,18.68-5.21,24.82ZM899.74,73.62s-41.71,148.2-41.7,148.21c-3.14,4.97,20.33,134.77,7.82,134.77,0,0-47.33,0-47.33,0-15.09.1,6.37-130.28,4.29-132.9.03-.61-.59-5.03-.72-5.62l-43.67-144.39c-2.59-13.23,20.89-8.96,27.06-8.17,10.03,1.29,27.74,103.63,30.97,107.09,1.4,7.46,6.41,9.31,7.49,1.8,0,0,15.75-103.12,15.75-103.12.53-10.29,27.62-6.31,33.62-5.76,6.99.63,7.25,3.92,6.42,8.1Z"/>
  <path class="cls-1" d="M503.49,106.48c-2.05-1.68-4.79-2.13-7.16-1.01l-.13.06c-8.45,4.73-9.45,19.47-9.58,28.95.05,8.33,2.89,18.35,11.1,20.06,13.17,1.71,13.78-16.66,12.77-27.01-.75-7.47-1.34-16.12-7-21.05Z"/>
</svg>
